<svg id="레이어_1" data-name="레이어 1" xmlns="http://www.w3.org/2000/svg" viewBox="0 0 80 85"><defs><style>.cls-1,.cls-2{fill:#fff;}.cls-2{stroke:#000;stroke-miterlimit:10;stroke-width:4px;}</style></defs><rect class="cls-1" x="2" y="2" width="76" height="81"/><path d="M76,4V81H4V4H76m4-4H0V85H80V0Z"/><path class="cls-1" d="M33,75V57.25l-.78-.61a16,16,0,1,1,19.56,0l-.78.61V75Z"/><path d="M42,30a14,14,0,0,1,8.55,25.06L49,56.26V73H35V56.26l-1.55-1.2A14,14,0,0,1,42,30m0-4A18,18,0,0,0,31,58.23V77H53V58.23A18,18,0,0,0,42,26Z"/><rect class="cls-1" x="33" y="67" width="18" height="8"/><path d="M49,69v4H35V69H49m4-4H31V77H53V65Z"/><rect class="cls-2" x="38" y="8" width="7" height="13"/><rect class="cls-2" x="13.88" y="22.48" width="7" height="13" transform="translate(-16.41 28.36) rotate(-58)"/><rect class="cls-2" x="62.88" y="22.48" width="7" height="13" transform="translate(76.97 100.63) rotate(-122)"/></svg>